<svg width="384" height="400" viewBox="0 0 384 400" fill="none" xmlns="http://www.w3.org/2000/svg">
<path fill-rule="evenodd" clip-rule="evenodd" d="M283.952 140.421C289.32 128.134 292.299 114.564 292.299 100.299C292.299 44.9052 247.393 0 192 0C136.607 0 91.7015 44.9052 91.7015 100.299C91.7015 114.564 94.6798 128.134 100.049 140.421C45.0101 140.835 0.520996 185.58 0.520996 240.717C0.520996 296.11 45.4262 341.015 100.82 341.015C123.307 341.015 144.065 333.615 160.793 321.117L135.935 399.685H248.065L223.207 321.117C239.935 333.615 260.694 341.015 283.181 341.015C338.574 341.015 383.479 296.11 383.479 240.717C383.479 185.58 338.99 140.835 283.952 140.421Z" fill="#D9D9D9"/>
</svg>
